/* XPM */
static char *c5f01dbdf59040999b851c13cf3d24a4GDKLdMYQBaoDKbQS[] = {
/* columns rows colors chars-per-pixel */
"32 32 11 1 ",
"  c None",
". c #28221F",
"X c #20372D",
"o c #3A3B3D",
"O c #413325",
"+ c #63492C",
"@ c #C96D45",
"# c #65845C",
"$ c #CCA562",
"% c #7CA8D5",
"& c #CFC281",
/* pixels */
"               &&&              ",
"              +++++             ",
"           X +++++++            ",
"           XX+...%.+XX o        ",
"             +++++++            ",
"              +++++             ",
"                OO              ",
"             $.#X#$.            ",
"            $$.$$$$..           ",
"           $$@..$...@$          ",
"          $$@ ...... @$         ",
"          @@$$$&#@.  $$@        ",
"           @@@@&#&&$$@@         ",
"              ..@@.             ",
"              XXXXX             ",
"             .XXXXXX            ",
"             ...X.XX            ",
"             ....XXX            ",
"             ...XXXX            ",
"             ...XXXX            ",
"             ...XXXX            ",
"             ...XXX             ",
"              ...XX             ",
"               ..XX             ",
"                .XX             ",
"                .XX             ",
"                .XX             ",
"                .XX             ",
"                .XX             ",
"               ..XX             ",
"              ..XXXX            ",
"                                "
};
