/* XPM */
static char *bf9d0609fa6d4458bbb7a1f7dfd3ba88xLniwAUc0UcGBZae[] = {
/* columns rows colors chars-per-pixel */
"32 32 11 1 ",
"  c black",
". c #991111",
"X c #983420",
"o c #C32808",
"O c #EA711B",
"+ c #FFFF37",
"@ c #FFBF47",
"# c #EBA26D",
"$ c #00CDF9",
"% c #FECD8E",
"& c white",
/* pixels */
".oOo..o...oo...o....oOOoooooooo.",
".OO..oo...oo...o...oOOooooooo...",
"oOo.oo...oo.......oOOoo..oo.....",
"OO..o..o.oo......oOOoo..oo...o..",
"OO..o..o.            ..oo...oo..",
"Oo.....o %%%%%%%%%%%% .o....o...",
"O...... %%%%%%%%%%%%%% ...o....o",
".....o. $$$$$$$$$$$$$$ ..oo...oO",
"....oo. $$$$$$$$$$$$$$ ..o....Oo",
"....o.. %%%%%%%%%%%%%% ooo...oO.",
"..ooo.o %%%%%%%%%%%%%% oooo.oo..",
".oo...o %%%%%%%%%%%%%% .ooooo...",
"....ooo %%%%%%%   %    .Oo.oo...",
"o..   . %%%%%%%   %    .Oo.o....",
".. %%%  %%%%%%%%%%%%%% OOo.o...o",
".. %%%  %%%%%%%%%      OOO....oo",
".. XXX O              oO@Oo.ooo.",
".. %%%% %%%%%%%%%%%%%%        o.",
"oO %%%%%%%%%%%%%%%%%%%%%%%%X%% .",
"OO %%%%%%%%%%%%#%%%%#%%%%%%X%% o",
"oo. %%%%%%%%%%%#%%%%#%%%%%%X%% o",
"o...      %%%##%%%##%%        .o",
"......... %%%%%%%%%%% ..OO@@o..o",
"..ooooo.. %%%%#%%%#%% .oOo@@O..o",
"oO@@Ooooo %%%##%%##%% .oOoO@Oo..",
"O@@Oo.... XXXXXXXXXXX oOOo@@Oo..",
"@Oo...ooo XXXXXXXXXXX OOoo@Oo..o",
"Oo...oOo. +++++++ +++ ..oOOo...O",
"o....Oo.. +++++   +++ ..oOo...oO",
"o..oOo... +++  .oo ++ .oOo....OO",
"o..Oo..oo &&& .oo. &&& OOo...ooo",
"..OO..ooo XXXX oo. XXXX oo.ooooo"
};
