/* XPM */
static char *_bd1af7539e044b5be7173b6a0b5c116ULv3crZYZsE4gx6O[] = {
/* columns rows colors chars-per-pixel */
"32 32 7 1 ",
"  c black",
". c #991111",
"X c #C32808",
"o c #EA711B",
"O c #FF8F00",
"+ c #FFB300",
"@ c #FFBF47",
/* pixels */
".XoX..X...XX...X....XooXXXXXXXX.",
".oo..XX...XX...X...XooXXXXXXX...",
"XoX.XX...XX.......XooXX..XX.....",
"oo..X..X.XX......       XX...X..",
"oo..X..X.....Xoo OOO++++ ...XX..",
"oX.....X...XXo@ O++++++++ ..X...",
"o......X..XXo@ O++++++++++ ....X",
".....X....XX@@ O+++   O+++ ...Xo",
"....XX....Xo@o O++ XX. O++ ...oX",
"....X.....X@@o O++ X.. O++ ..Xo.",
"..XXX.X..XX@@X O++ ..X O++ .XX..",
".XX...X..XX@oX O+++   O+++ XX...",
"....XXX...XooX. O+++++++++ XX...",
"X..XX..XXoooX. O+++++++++ .X....",
"..XXXXooooXXX O++ OOO+++ X.X...X",
"....XoXXoX.. O++ .      oo....XX",
"...XoXXooX. O++ XXoX..Xo@oX.XXX.",
"..Xo@XooX. O++ X..Xo...o@@X...X.",
"Xo@@o.oX. O++ .X...XX..Xo@o..X..",
"ooXX..X. O++ .......XX.Xo@o..X.X",
"XX....X O+++O .......X.XX@@X...X",
"X..... O+++++O .....XX..Xo@o...X",
"..... O++++  O ....XX...oo@@X..X",
"..XX O++++ .X oX..X....XoX@@o..X",
"Xo@ O++++OO XXoX..X....XoXo@oX..",
"o@@ O+++  O .Xoo..X...XooX@@oX..",
"@oX. O+ XX ..Xoo..XX.XooXX@oX..X",
"oX... OO ..X.XoX..XXXX..XooX...o",
"X....o O ..XXXo..XXXX...XoX...Xo",
"X..XoX. .XXXXX..XXX....XoX....oo",
"X..oX..XXXXXXX.XX.X..XoooX...XXX",
"..oo..XXXX.XX..XX....oooXX.XXXXX"
};
